:SAMPLES-PER-SECOND 30
:FRAME-RANGE 1-3549
:FULLY-SPECIFIED
:DEGREES
1886
root  -16.2039 38.8785 -60.7705 7.21649 67.0406 5.36436
RightUpLeg  -9.78653 4.79711 -5.69514
RightLeg  54.8843 -0.519901 -1.20256
RightFoot  -5.4714 -0.34369 5.97055
RightToes  1.218e-010 1.26228e-014 -6.01869e-014
Spine  -6.53382 0.115189 -4.63975
Spine1  10.3544 0.658633 -2.91009
HEad  7.02732 -43.3055 7.06062
LeftShoulder1  0.573934 1.27775 -22.2194
LeftArm  -0.51151 13.5607 -46.474
LeftForeArm  37.3943 -1.91593 -12.4733
LeftHand  -0.024219 5.46817 3.1766
RightShoulder  1.43675 1.03456 27.0744
RightArm  -23.8874 1.17721 49.0281
RightForeArm  76.9653 -5.1301 4.15887
RightHand  0.133506 -6.76842 -13.0212
LeftUpLeg  -20.9721 -0.449144 3.18243
LeftLeg  18.7843 -2.83315 -0.350618
LeftFoot  -1.97223 0.609971 -7.294
LeftToes  -1.43952e-010 7.51141e-011 -1.22592e-011
1887
root  -15.5437 39.0136 -60.8038 6.53412 65.2924 4.44011
RightUpLeg  -13.0876 2.86903 -5.16329
RightLeg  57.9548 -3.44892 -6.37828
RightFoot  -5.46201 -0.287406 4.86892
RightToes  1.218e-010 1.26228e-014 -6.01869e-014
Spine  -5.55994 -0.228964 -5.40721
Spine1  9.70511 0.147679 -2.40509
HEad  5.30619 -41.7253 8.33527
LeftShoulder1  0.684979 0.860887 -21.918
LeftArm  0.744053 12.6635 -45.8844
LeftForeArm  36.469 -3.77325 -12.3486
LeftHand  -0.0283459 5.2815 3.58963
RightShoulder  1.39579 0.874902 27.3624
RightArm  -22.2803 0.24816 49.2535
RightForeArm  76.379 -5.3177 5.14821
RightHand  0.104396 -6.53476 -12.7005
LeftUpLeg  -19.9812 0.99974 2.96419
LeftLeg  18.9857 -2.466 -0.236649
LeftFoot  -2.74076 0.51245 -6.59258
LeftToes  -1.43952e-010 7.51141e-011 -1.22592e-011
1888
root  -14.9126 39.1476 -60.8053 5.90771 63.6358 3.49129
RightUpLeg  -15.7046 0.935267 -4.50765
RightLeg  58.0519 -5.29956 -9.53674
RightFoot  -6.43415 -0.203015 3.7147
RightToes  1.218e-010 1.26228e-014 -6.01869e-014
Spine  -5.07069 -0.668195 -6.05759
Spine1  9.49669 -0.406618 -1.83107
HEad  3.96449 -40.1549 9.46583
LeftShoulder1  0.808994 0.370208 -21.4314
LeftArm  1.90477 11.2172 -45.143
LeftForeArm  35.366 -4.80264 -12.2854
LeftHand  -0.0330753 5.11615 3.91415
RightShoulder  1.27199 0.456106 27.7819
RightArm  -21.3031 -0.764968 49.713
RightForeArm  75.308 -5.45935 5.74185
RightHand  0.0979191 -6.43056 -13.1528
LeftUpLeg  -19.0018 1.9241 2.91621
LeftLeg  18.9355 -1.67086 0.0511653
LeftFoot  -3.37185 0.443247 -6.07002
LeftToes  -1.43952e-010 7.51141e-011 -1.22592e-011
1889
root  -14.3433 39.2587 -60.7789 5.57489 61.6418 2.80901
RightUpLeg  -17.7616 -0.512404 -3.71448
RightLeg  55.7999 -6.7388 -10.9421
RightFoot  -8.48249 -0.151556 3.76234
RightToes  1.218e-010 1.26228e-014 -6.01869e-014
Spine  -4.94003 -1.07151 -6.61758
Spine1  9.68144 -0.810346 -1.5991
HEad  3.05688 -38.3353 10.2295
LeftShoulder1  0.863798 0.100227 -20.78
LeftArm  2.40335 9.22572 -44.2952
LeftForeArm  34.8865 -4.91738 -12.3161
LeftHand  -0.0351368 5.04887 3.97753
RightShoulder  1.24067 0.33478 28.051
RightArm  -20.304 -1.29755 49.9347
RightForeArm  73.4609 -5.62579 6.29958
RightHand  -0.0011508 -5.53714 -12.9423
LeftUpLeg  -18.0328 3.19625 2.87705
LeftLeg  18.8019 -0.931405 0.249261
LeftFoot  -4.10348 0.375011 -5.53826
LeftToes  -1.43952e-010 7.51141e-011 -1.22592e-011
1890
root  -13.8307 39.341 -60.7141 5.24591 59.4769 2.03244
RightUpLeg  -19.5474 -2.05685 -2.80453
RightLeg  52.1062 -6.74866 -9.569
RightFoot  -9.81077 -0.11076 3.30532
RightToes  1.218e-010 1.26228e-014 -6.01869e-014
Spine  -4.54246 -1.40364 -7.14343
Spine1  9.17467 -1.17794 -1.22812
HEad  2.85602 -36.4991 10.3575
LeftShoulder1  0.950685 -0.28801 -20.2538
LeftArm  2.05783 7.45113 -43.1927
LeftForeArm  35.2341 -4.38583 -12.3645
LeftHand  -0.0306548 5.19518 3.69204
RightShoulder  1.25008 0.364498 28.0327
RightArm  -19.5059 -1.9417 50.172
RightForeArm  72.758 -5.71957 6.70259
RightHand  -0.0058974 -5.49543 -12.8238
LeftUpLeg  -17.3248 4.40094 3.04368
LeftLeg  18.9283 0.0767958 0.488445
LeftFoot  -4.88229 0.331248 -5.34982
LeftToes  -1.43952e-010 7.51141e-011 -1.22592e-011
1891
root  -13.3489 39.3947 -60.6162 5.18677 57.2156 1.64453
RightUpLeg  -20.937 -3.84458 -2.03427
RightLeg  47.9692 -5.68395 -7.03815
RightFoot  -10.3247 -0.102487 3.6511
RightToes  1.218e-010 1.26228e-014 -6.01869e-014
Spine  -4.43426 -1.71399 -7.71309
Spine1  9.10678 -1.48899 -0.907583
HEad  3.04862 -34.6751 10.4275
LeftShoulder1  1.02227 -0.654472 -19.5686
LeftArm  0.615198 5.65005 -42.2894
LeftForeArm  36.2484 -3.19031 -12.3127
LeftHand  -0.028937 5.25885 3.61739
RightShoulder  1.20175 0.216387 28.0851
RightArm  -19.0943 -1.98921 50.4711
RightForeArm  73.2052 -5.72286 6.83435
RightHand  -0.011541 -5.44173 -12.9088
LeftUpLeg  -16.4733 5.49531 3.12854
LeftLeg  18.9829 1.21472 0.729341
LeftFoot  -5.78878 0.28388 -5.13659
LeftToes  -1.43952e-010 7.51141e-011 -1.22592e-011
